HIERARCHY
ROOT Hips
{
	OFFSET 0.000000 100.481300 0.000000
	CHANNELS 6 Xposition Yposition Zposition Xrotation Yrotation Zrotation
	JOINT Spine
	{
		OFFSET -0.279200 12.230698 -2.892100
		CHANNELS 3 Xrotation Yrotation Zrotation
		JOINT Spine1
		{
			OFFSET -0.325700 14.269203 -3.374200
			CHANNELS 3 Xrotation Yrotation Zrotation
			JOINT Spine2
			{
				OFFSET -0.372300 16.307602 -0.352600
				CHANNELS 3 Xrotation Yrotation Zrotation
				JOINT Neck
				{
					OFFSET -0.418800 17.814194 8.416900
					CHANNELS 3 Xrotation Yrotation Zrotation
					JOINT Head
					{
						OFFSET 0.000000 7.031097 3.806800
						CHANNELS 3 Xrotation Yrotation Zrotation
						JOINT HeadTop_End
						{
							OFFSET 0.000000 24.646606 12.978600
							CHANNELS 3 Xrotation Yrotation Zrotation
							End Site
							{
								OFFSET 0.000000 27.854965 0.000000
							}
						}
					}
				}
				JOINT LeftShoulder
				{
					OFFSET 16.952999 14.495407 -7.737500
					CHANNELS 3 Xrotation Yrotation Zrotation
					JOINT LeftArm
					{
						OFFSET 9.308998 -2.777710 0.208600
						CHANNELS 3 Xrotation Yrotation Zrotation
						JOINT LeftForeArm
						{
							OFFSET 29.972298 0.000000 0.000000
							CHANNELS 3 Xrotation Yrotation Zrotation
							JOINT LeftHand
							{
								OFFSET 26.026505 0.000000 0.000000
								CHANNELS 3 Xrotation Yrotation Zrotation
								JOINT LeftHandThumb1
								{
									OFFSET 12.240501 -7.147949 9.207150
									CHANNELS 3 Xrotation Yrotation Zrotation
									JOINT LeftHandThumb2
									{
										OFFSET 4.138618 -2.389435 2.389433
										CHANNELS 3 Xrotation Yrotation Zrotation
										JOINT LeftHandThumb3
										{
											OFFSET 2.726913 -1.574387 1.574386
											CHANNELS 3 Xrotation Yrotation Zrotation
											JOINT LeftHandThumb4
											{
												OFFSET 3.941010 -2.275345 2.275342
												CHANNELS 3 Xrotation Yrotation Zrotation
												End Site
												{
													OFFSET -0.005798 5.087799 0.009903
												}
											}
										}
									}
								}
								JOINT LeftHandIndex1
								{
									OFFSET 24.424698 -1.985611 5.953459
									CHANNELS 3 Xrotation Yrotation Zrotation
									JOINT LeftHandIndex2
									{
										OFFSET 6.426697 0.000000 0.000000
										CHANNELS 3 Xrotation Yrotation Zrotation
										JOINT LeftHandIndex3
										{
											OFFSET 5.337898 0.000000 0.000000
											CHANNELS 3 Xrotation Yrotation Zrotation
											JOINT LeftHandIndex4
											{
												OFFSET 4.409401 0.000000 0.000000
												CHANNELS 3 Xrotation Yrotation Zrotation
												End Site
												{
													OFFSET 0.000000 4.409363 0.014373
												}
											}
										}
									}
								}
								JOINT LeftHandMiddle1
								{
									OFFSET 23.810104 0.000000 0.000000
									CHANNELS 3 Xrotation Yrotation Zrotation
									JOINT LeftHandMiddle2
									{
										OFFSET 7.176498 0.000000 0.000000
										CHANNELS 3 Xrotation Yrotation Zrotation
										JOINT LeftHandMiddle3
										{
											OFFSET 6.774902 0.000000 0.000000
											CHANNELS 3 Xrotation Yrotation Zrotation
											JOINT LeftHandMiddle4
											{
												OFFSET 5.403328 0.000000 0.000000
												CHANNELS 3 Xrotation Yrotation Zrotation
												End Site
												{
													OFFSET -0.027702 5.403244 0.017414
												}
											}
										}
									}
								}
								JOINT LeftHandRing1
								{
									OFFSET 22.908401 -0.839279 -6.020567
									CHANNELS 3 Xrotation Yrotation Zrotation
									JOINT LeftHandRing2
									{
										OFFSET 6.337502 0.000000 0.000000
										CHANNELS 3 Xrotation Yrotation Zrotation
										JOINT LeftHandRing3
										{
											OFFSET 5.779297 0.000000 0.000000
											CHANNELS 3 Xrotation Yrotation Zrotation
											JOINT LeftHandRing4
											{
												OFFSET 4.965698 0.000000 0.000000
												CHANNELS 3 Xrotation Yrotation Zrotation
												End Site
												{
													OFFSET 0.000000 4.965668 0.016186
												}
											}
										}
									}
								}
								JOINT LeftHandPinky1
								{
									OFFSET 20.037003 -1.530319 -10.950146
									CHANNELS 3 Xrotation Yrotation Zrotation
									JOINT LeftHandPinky2
									{
										OFFSET 5.254700 0.000000 0.000000
										CHANNELS 3 Xrotation Yrotation Zrotation
										JOINT LeftHandPinky3
										{
											OFFSET 4.810204 0.000000 0.000000
											CHANNELS 3 Xrotation Yrotation Zrotation
											JOINT LeftHandPinky4
											{
												OFFSET 3.647202 0.000000 0.000000
												CHANNELS 3 Xrotation Yrotation Zrotation
												End Site
												{
													OFFSET 0.000000 3.647186 0.011889
												}
											}
										}
									}
								}
							}
						}
					}
				}
				JOINT RightShoulder
				{
					OFFSET -15.141001 14.495407 -7.737500
					CHANNELS 3 Xrotation Yrotation Zrotation
					JOINT RightArm
					{
						OFFSET -9.308998 -2.777710 0.208500
						CHANNELS 3 Xrotation Yrotation Zrotation
						JOINT RightForeArm
						{
							OFFSET -29.972300 0.000000 0.000000
							CHANNELS 3 Xrotation Yrotation Zrotation
							JOINT RightHand
							{
								OFFSET -26.026505 0.000000 0.000000
								CHANNELS 3 Xrotation Yrotation Zrotation
								JOINT RightHandThumb1
								{
									OFFSET -12.240601 -7.148026 9.207092
									CHANNELS 3 Xrotation Yrotation Zrotation
									JOINT RightHandThumb2
									{
										OFFSET -4.138618 -2.389435 2.389433
										CHANNELS 3 Xrotation Yrotation Zrotation
										JOINT RightHandThumb3
										{
											OFFSET -2.726974 -1.574417 1.574421
											CHANNELS 3 Xrotation Yrotation Zrotation
											JOINT RightHandThumb4
											{
												OFFSET -3.941010 -2.275345 2.275343
												CHANNELS 3 Xrotation Yrotation Zrotation
												End Site
												{
													OFFSET 0.005814 5.087799 0.009927
												}
											}
										}
									}
								}
								JOINT RightHandIndex1
								{
									OFFSET -24.424698 -1.985657 5.953444
									CHANNELS 3 Xrotation Yrotation Zrotation
									JOINT RightHandIndex2
									{
										OFFSET -6.426697 0.000000 0.000000
										CHANNELS 3 Xrotation Yrotation Zrotation
										JOINT RightHandIndex3
										{
											OFFSET -5.337898 0.000000 0.000000
											CHANNELS 3 Xrotation Yrotation Zrotation
											JOINT RightHandIndex4
											{
												OFFSET -4.409401 0.000000 0.000000
												CHANNELS 3 Xrotation Yrotation Zrotation
												End Site
												{
													OFFSET 0.000000 4.409363 0.014408
												}
											}
										}
									}
								}
								JOINT RightHandMiddle1
								{
									OFFSET -23.810097 0.000000 0.000000
									CHANNELS 3 Xrotation Yrotation Zrotation
									JOINT RightHandMiddle2
									{
										OFFSET -7.176498 0.000000 0.000000
										CHANNELS 3 Xrotation Yrotation Zrotation
										JOINT RightHandMiddle3
										{
											OFFSET -6.774902 0.000000 0.000000
											CHANNELS 3 Xrotation Yrotation Zrotation
											JOINT RightHandMiddle4
											{
												OFFSET -5.403328 0.000000 0.000000
												CHANNELS 3 Xrotation Yrotation Zrotation
												End Site
												{
													OFFSET 0.027702 5.403244 0.017457
												}
											}
										}
									}
								}
								JOINT RightHandRing1
								{
									OFFSET -22.908302 -0.839325 -6.020576
									CHANNELS 3 Xrotation Yrotation Zrotation
									JOINT RightHandRing2
									{
										OFFSET -6.337502 0.000000 0.000000
										CHANNELS 3 Xrotation Yrotation Zrotation
										JOINT RightHandRing3
										{
											OFFSET -5.779297 0.000000 0.000000
											CHANNELS 3 Xrotation Yrotation Zrotation
											JOINT RightHandRing4
											{
												OFFSET -4.965698 0.000000 0.000000
												CHANNELS 3 Xrotation Yrotation Zrotation
												End Site
												{
													OFFSET 0.000000 4.965668 0.016226
												}
											}
										}
									}
								}
								JOINT RightHandPinky1
								{
									OFFSET -20.037003 -1.530334 -10.950259
									CHANNELS 3 Xrotation Yrotation Zrotation
									JOINT RightHandPinky2
									{
										OFFSET -5.254700 0.000000 0.000000
										CHANNELS 3 Xrotation Yrotation Zrotation
										JOINT RightHandPinky3
										{
											OFFSET -4.810204 0.000000 0.000000
											CHANNELS 3 Xrotation Yrotation Zrotation
											JOINT RightHandPinky4
											{
												OFFSET -3.647202 0.000000 0.000000
												CHANNELS 3 Xrotation Yrotation Zrotation
												End Site
												{
													OFFSET 0.000000 3.647186 0.011917
												}
											}
										}
									}
								}
							}
						}
					}
				}
			}
		}
	}
	JOINT LeftUpLeg
	{
		OFFSET 15.427100 -6.655098 0.678600
		CHANNELS 3 Xrotation Yrotation Zrotation
		JOINT LeftLeg
		{
			OFFSET 4.081073 -39.591068 13.024000
			CHANNELS 3 Xrotation Yrotation Zrotation
			JOINT LeftFoot
			{
				OFFSET -4.081074 -37.707932 -15.979700
				CHANNELS 3 Xrotation Yrotation Zrotation
				JOINT LeftToeBase
				{
					OFFSET 5.346399 -15.068900 20.645000
					CHANNELS 3 Xrotation Yrotation Zrotation
					JOINT LeftToe_End
					{
						OFFSET 2.754700 0.931300 11.300900
						CHANNELS 3 Xrotation Yrotation Zrotation
						End Site
						{
							OFFSET 0.000000 11.669021 0.000000
						}
					}
				}
			}
		}
	}
	JOINT RightUpLeg
	{
		OFFSET -15.569500 -6.655098 0.678600
		CHANNELS 3 Xrotation Yrotation Zrotation
		JOINT RightLeg
		{
			OFFSET -4.081825 -39.591045 13.023800
			CHANNELS 3 Xrotation Yrotation Zrotation
			JOINT RightFoot
			{
				OFFSET 4.081824 -37.707954 -15.979600
				CHANNELS 3 Xrotation Yrotation Zrotation
				JOINT RightToeBase
				{
					OFFSET -5.346400 -15.068900 20.645000
					CHANNELS 3 Xrotation Yrotation Zrotation
					JOINT RightToe_End
					{
						OFFSET -2.754700 0.931300 11.300900
						CHANNELS 3 Xrotation Yrotation Zrotation
						End Site
						{
							OFFSET 0.000000 11.669021 0.000000
						}
					}
				}
			}
		}
	}
}
MOTION
Frames: 4
Frame Time: 0.033333
-2.756177 15.785347 -9.581764 82.092249 -4.202682 -1.954189 5.836949 -1.484522 -0.781763 -4.523718 -5.981069 1.127638 -3.995820 -6.220318 0.294202 -32.728313 -1.703683 16.044094 -6.251714 25.667515 -5.064328 0.000001 0.000001 -0.000000 -32.608566 -38.379728 29.308417 -79.448487 -12.698496 -43.172605 -0.000002 -47.253120 -0.000000 -117.495742 16.602481 24.967842 1.788514 0.679381 2.705728 19.372162 -1.387419 7.694062 -4.467640 -9.610256 1.237819 0.000002 -0.000000 0.000000 -1.850920 2.116808 -39.453027 2.934613 5.074589 -60.059561 0.513904 2.401347 -24.155999 -0.000004 -0.000001 0.000001 0.316448 5.417024 -52.072959 3.380611 5.305588 -64.986716 0.280981 1.794223 -17.799324 -0.000001 0.000001 -0.000001 -0.122486 5.698784 -60.904448 4.409026 5.671180 -75.708323 0.579038 2.541454 -25.666266 -0.000001 -0.000003 0.000001 2.407154 7.159272 -64.268385 4.424647 5.675123 -75.866155 1.292460 3.671856 -38.772395 -0.000000 -0.000001 -0.000000 -20.930109 19.654660 15.494004 -53.798668 48.883599 37.528877 0.000032 110.481868 -0.000044 -43.103999 -8.001369 -56.630406 8.493685 -5.083659 11.038717 21.678103 -18.139978 -18.356543 -0.790146 -49.824686 -32.618402 -0.000002 -0.000000 0.000002 -1.104565 1.418789 15.160580 1.422372 -3.352174 45.974078 0.633047 -2.346197 30.195600 0.000001 0.000000 -0.000000 3.422709 -7.186582 51.811575 6.299629 -4.358541 110.671823 0.249837 -1.506359 18.832915 -0.000000 0.000000 -0.000000 -3.346770 -2.612600 57.088227 5.430570 -4.592642 99.569596 1.690628 -3.591717 50.401827 -0.000000 0.000001 -0.000004 -3.887856 -3.394683 64.866867 4.054573 -4.618108 82.557378 2.313903 -4.025819 59.763684 -0.000000 -0.000000 0.000001 -10.233882 33.782525 19.502564 25.798400 -0.089463 -5.871466 -13.841127 16.914212 19.592947 4.590873 9.738584 35.563081 0.000001 -0.000000 0.000001 -39.133238 -40.733124 -50.654889 29.109156 -10.666181 -4.565310 -7.293257 2.806722 23.367233 -0.314323 -0.583672 6.369943 -0.000002 -0.000001 -0.000001 
-2.758418 15.775726 -9.581123 82.108511 -4.195250 -1.943217 5.831744 -1.499835 -0.781634 -4.538763 -5.980683 1.129652 -4.010422 -6.219895 0.297785 -32.720131 -1.679938 16.045079 -6.232975 25.694810 -5.013367 -0.000000 0.000000 -0.000000 -32.533041 -38.319714 29.334092 -79.541801 -12.659243 -43.209792 -0.000016 -47.266822 -0.000012 -117.462028 16.615043 24.987583 1.752665 0.674106 2.729905 19.378988 -1.393624 7.690174 -4.472614 -9.610477 1.256331 0.000001 -0.000001 0.000000 -1.844361 2.118415 -39.407282 2.902375 5.055954 -59.694405 0.513367 2.400109 -24.142834 0.000002 0.000001 0.000001 0.324179 5.423402 -52.079516 3.382356 5.306413 -65.005806 0.281005 1.794291 -17.799830 -0.000002 0.000001 0.000002 -0.121717 5.698452 -60.893841 4.408030 5.670936 -75.698092 0.579997 2.543427 -25.687998 -0.000001 0.000004 0.000001 2.405948 7.158502 -64.259034 4.424477 5.675090 -75.864496 1.293526 3.673191 -38.789112 -0.000000 0.000002 0.000000 -20.982199 19.806118 15.556359 -53.627947 48.848471 37.271342 0.000085 110.530629 -0.000095 -43.174927 -8.058684 -56.686762 8.485619 -5.071195 11.037555 21.670802 -18.143110 -18.348840 -0.777512 -49.824164 -32.606326 0.000000 -0.000000 0.000001 -1.104327 1.417916 15.160483 1.422371 -3.352173 45.974078 0.634847 -2.349295 30.239693 0.000000 0.000000 -0.000000 3.425280 -7.188557 51.812514 6.299532 -4.358561 110.670368 0.250305 -1.507715 18.850745 0.000000 0.000000 0.000000 -3.353164 -2.604807 57.061832 5.429531 -4.592815 99.556564 1.690507 -3.591604 50.399754 -0.000001 0.000001 0.000001 -3.887825 -3.398371 64.892678 4.054631 -4.618106 82.558088 2.313911 -4.025840 59.763984 -0.000000 0.000000 -0.000001 -10.226572 33.769924 19.484356 25.788020 -0.073025 -5.874409 -13.842512 16.916022 19.584625 4.597341 9.735519 35.552552 0.000000 -0.000001 -0.000003 -39.172378 -40.753358 -50.713632 29.107790 -10.644055 -4.518971 -7.305012 2.810855 23.348899 -0.312908 -0.585091 6.379188 0.000001 -0.000000 -0.000000 
-2.760301 15.774590 -9.580940 82.122349 -4.180710 -1.938224 5.836417 -1.515217 -0.782242 -4.551758 -5.980309 1.131451 -4.023016 -6.219495 0.300946 -32.723751 -1.665130 16.052287 -6.211812 25.716496 -4.970276 -0.000002 0.000001 -0.000000 -32.480907 -38.284119 29.348947 -79.612794 -12.645656 -43.234172 -0.000018 -47.271814 -0.000023 -117.439925 16.620039 25.002097 1.675611 0.605120 2.737395 19.380105 -1.394663 7.689529 -4.466471 -9.610244 1.233510 0.000000 0.000001 -0.000000 -1.853983 2.097146 -39.341299 2.939741 5.077523 -60.117515 0.513606 2.400669 -24.148680 -0.000004 0.000001 0.000002 0.319790 5.416183 -52.011566 3.383785 5.307060 -65.021154 0.281017 1.794333 -17.800342 -0.000002 -0.000003 0.000002 -0.136392 5.687560 -60.856535 4.410172 5.671475 -75.719853 0.579196 2.541767 -25.669958 0.000001 0.000001 -0.000003 2.368129 7.140239 -64.250961 4.424435 5.675071 -75.863983 1.292839 3.672311 -38.778259 0.000001 -0.000001 -0.000001 -21.022465 19.922487 15.606296 -53.506018 48.809423 37.072296 0.000010 110.577949 -0.000006 -43.228855 -8.110772 -56.725688 8.466743 -5.042141 11.034864 21.661769 -18.146879 -18.338920 -0.794903 -49.824847 -32.622927 0.000000 0.000001 0.000002 -1.104866 1.419933 15.160648 1.422371 -3.352174 45.974075 0.633063 -2.346249 30.196341 0.000000 0.000000 0.000000 3.426441 -7.191298 51.771492 6.299457 -4.358579 110.669685 0.250229 -1.507518 18.848004 -0.000000 0.000000 -0.000000 -3.355054 -2.602373 57.053277 5.443424 -4.590465 99.730276 1.689876 -3.591068 50.389516 -0.000000 0.000001 0.000001 -3.895744 -3.395826 64.901018 4.054687 -4.618116 82.558826 2.313935 -4.025866 59.764278 0.000001 -0.000000 0.000000 -10.234442 33.751008 19.469251 25.781529 -0.083055 -5.872335 -13.830007 16.915985 19.592594 4.590121 9.740306 35.570526 -0.000003 -0.000000 0.000000 -39.177326 -40.763283 -50.733125 29.102063 -10.637841 -4.496521 -7.314452 2.802220 23.367552 -0.334657 -0.590544 6.409910 -0.000000 0.000000 -0.000000 
-2.761294 15.773102 -9.580254 82.136378 -4.169616 -1.938633 5.840392 -1.530472 -0.782042 -4.564623 -5.979949 1.133228 -4.035477 -6.219117 0.304070 -32.722005 -1.650306 16.058605 -6.195242 25.734384 -4.926185 -0.000000 0.000000 0.000000 -32.417625 -38.251102 29.372300 -79.683569 -12.648392 -43.251145 0.000005 -47.266063 -0.000006 -117.424216 16.620447 25.011540 1.696751 0.596425 2.715221 19.358375 -1.374841 7.701961 -4.466141 -9.610233 1.232242 0.000001 -0.000000 0.000001 -1.860248 2.084524 -39.307158 2.932139 5.073186 -60.031707 0.513934 2.401403 -24.156663 0.000002 -0.000000 0.000004 0.314095 5.414071 -52.052950 3.383534 5.306943 -65.018367 0.281038 1.794385 -17.800846 0.000001 0.000001 -0.000001 -0.132647 5.691460 -60.881233 4.410938 5.671668 -75.727660 0.578902 2.541167 -25.663343 0.000000 -0.000002 -0.000001 2.369345 7.141417 -64.278781 4.424404 5.675073 -75.863847 1.292968 3.672493 -38.780322 -0.000000 -0.000000 0.000001 -21.063031 20.039198 15.656518 -53.395711 48.753098 36.894838 0.000004 110.628342 -0.000009 -43.274211 -8.166909 -56.751069 8.438069 -4.998007 11.030873 21.706109 -18.121064 -18.355570 -0.811785 -49.825486 -32.639029 -0.000001 0.000002 0.000000 -1.105679 1.422926 15.160940 1.422370 -3.352175 45.974075 0.630597 -2.341986 30.135737 -0.000000 -0.000000 -0.000000 3.411428 -7.181338 51.731467 6.299744 -4.358490 110.673073 0.249535 -1.505462 18.821496 -0.000000 0.000000 -0.000000 -3.355843 -2.604786 57.074512 5.441697 -4.590773 99.708611 1.689861 -3.591057 50.389171 -0.000000 0.000001 0.000001 -3.897602 -3.392431 64.883375 4.054759 -4.618122 82.559556 2.314083 -4.025946 59.766518 0.000000 0.000001 0.000002 -10.243461 33.731497 19.460363 25.777387 -0.083892 -5.870895 -13.821566 16.913007 19.597431 4.583330 9.744409 35.585624 -0.000003 -0.000001 -0.000000 -39.163680 -40.772029 -50.727904 29.085425 -10.633286 -4.487508 -7.319363 2.785623 23.408254 -0.372149 -0.598924 6.455784 0.000000 0.000001 -0.000001 
